<?xml version="1.0" ?><!DOCTYPE svg  PUBLIC '-//W3C//DTD SVG 1.1//EN'  'http://www.w3.org/Graphics/SVG/1.1/DTD/svg11.dtd'><svg height="100%" style="fill-rule:evenodd;clip-rule:evenodd;stroke-linejoin:round;stroke-miterlimit:1.41421;" version="1.1" viewBox="0 0 1330 1025" width="100%" xml:space="preserve" xmlns="http://www.w3.org/2000/svg" xmlns:xlink="http://www.w3.org/1999/xlink"><g transform="matrix(4.16667,0,0,4.16667,0,0)"><path d="M318.891,196.398C318.891,223.789 296.691,246 269.289,246L0,246L0,49.934C0,22.535 22.203,0.324 49.605,0.324L318.891,0.324L318.891,196.398Z" style="fill:white;fill-rule:nonzero;"/><path d="M231.098,146.164L251.609,146.164C252.246,146.164 253.465,146.062 254.051,145.929C257.996,145.09 261.265,141.586 261.265,136.816C261.265,132.07 257.996,128.558 254.051,127.703C253.465,127.578 252.246,127.469 251.609,127.469L231.098,127.469L231.098,146.164Z" style="fill:url(#_Linear1);"/><path d="M249.207,16.86C229.641,16.86 213.773,32.727 213.773,52.297L213.773,89.094L263.914,89.094C265.078,89.094 266.5,89.176 267.387,89.231C278.734,89.797 287.102,95.621 287.102,105.742C287.102,113.695 281.383,120.484 270.969,122.008L270.969,122.418C282.473,123.219 291.273,129.543 291.273,139.519C291.273,150.293 281.609,157.226 268.73,157.226L213.773,157.226L213.773,229.465L265.742,229.465C285.32,229.465 301.18,213.597 301.18,194.031L301.18,16.86L249.207,16.86Z" style="fill:url(#_Linear2);"/><path d="M258.844,108.304C258.844,103.621 255.563,100.488 251.711,99.828C251.352,99.778 250.367,99.676 249.688,99.676L231.098,99.676L231.098,116.929L249.688,116.929C250.367,116.929 251.352,116.832 251.711,116.769C255.563,116.121 258.844,112.98 258.844,108.304Z" style="fill:url(#_Linear3);"/><path d="M53.148,16.86C33.578,16.86 17.714,32.727 17.714,52.297L17.714,139.808C27.656,144.621 37.918,147.758 48.363,147.758C60.613,147.758 67.351,140.277 67.351,130.207L67.351,89.094L97.824,89.094L97.824,130.207C97.824,146.289 87.949,159.191 54.085,159.191C33.703,159.191 17.714,154.789 17.714,154.789L17.714,229.465L69.683,229.465C89.253,229.465 105.113,213.597 105.113,194.031L105.113,16.86L53.148,16.86Z" style="fill:url(#_Linear4);"/><path d="M151.18,16.86C131.617,16.86 115.746,32.727 115.746,52.297L115.746,98.688C124.727,90.981 140.242,86.168 165.469,87.305C178.984,87.906 193.297,91.528 193.297,91.528L193.297,106.527C186.129,102.906 177.531,99.528 166.461,98.696C147.316,97.25 135.801,106.605 135.801,123.168C135.801,139.722 147.316,149.074 166.461,147.629C177.531,146.785 186.242,143.336 193.297,139.808L193.297,154.797C193.297,154.797 178.984,158.418 165.469,159.027C140.242,160.164 124.727,155.355 115.746,147.652L115.746,229.465L167.715,229.465C187.285,229.465 203.148,213.597 203.148,194.031L203.148,16.86L151.18,16.86Z" style="fill:url(#_Linear5);"/></g><defs><linearGradient gradientTransform="matrix(87.541,0,0,87.541,214.519,136.816)" gradientUnits="userSpaceOnUse" id="_Linear1" x1="0" x2="1" y1="0" y2="0"><stop offset="0" style="stop-color:rgb(0,127,73);stop-opacity:1"/><stop offset="1" style="stop-color:rgb(98,188,70);stop-opacity:1"/></linearGradient><linearGradient gradientTransform="matrix(87.5548,0,0,87.5548,214.511,123.16)" gradientUnits="userSpaceOnUse" id="_Linear2" x1="0" x2="1" y1="0" y2="0"><stop offset="0" style="stop-color:rgb(0,127,73);stop-opacity:1"/><stop offset="1" style="stop-color:rgb(98,188,70);stop-opacity:1"/></linearGradient><linearGradient gradientTransform="matrix(87.5373,0,0,87.5373,214.522,108.304)" gradientUnits="userSpaceOnUse" id="_Linear3" x1="0" x2="1" y1="0" y2="0"><stop offset="0" style="stop-color:rgb(0,127,73);stop-opacity:1"/><stop offset="1" style="stop-color:rgb(98,188,70);stop-opacity:1"/></linearGradient><linearGradient gradientTransform="matrix(87.3991,0,0,87.3991,18.4482,123.16)" gradientUnits="userSpaceOnUse" id="_Linear4" x1="0" x2="1" y1="0" y2="0"><stop offset="0" style="stop-color:rgb(50,51,119);stop-opacity:1"/><stop offset="1" style="stop-color:rgb(0,120,193);stop-opacity:1"/></linearGradient><linearGradient gradientTransform="matrix(87.4038,0,0,87.4038,116.479,123.16)" gradientUnits="userSpaceOnUse" id="_Linear5" x1="0" x2="1" y1="0" y2="0"><stop offset="0" style="stop-color:rgb(116,50,54);stop-opacity:1"/><stop offset="1" style="stop-color:rgb(237,24,70);stop-opacity:1"/></linearGradient></defs></svg>