<?xml version="1.0" encoding="UTF-8" standalone="no"?>
<svg xmlns="http://www.w3.org/2000/svg" version="1.1" id="svg18660" viewBox="0 0 400 423.64521" height="423.6452" width="400">
    <g transform="translate(0,-628.71699)" id="layer1">
        <path id="path10542" style="fill:#808285;fill-opacity:1;fill-rule:evenodd;stroke:none"
            d="m 40.429055,745.7425 c -0.373837,0.86687 0.502062,-1.82765 0.754899,-2.74327 l 0.98543,-3.56952 C 52.341551,702.52548 62.509202,665.62124 72.681368,628.71699 L 400,629.35812 38.266217,923.58159 203.57182,724.40759 79.390573,724.75977 c -2.294766,0.007 -4.591697,0 -6.881947,0.15349 -14.727743,1.25065 -27.488055,10.17488 -32.079752,20.82653" />
        <path id="path10544" style="fill:#ed1c24;fill-opacity:1;fill-rule:evenodd;stroke:none"
            d="m 382.2328,830.42477 c 0.37113,-0.86686 -9.89342,62.6954 -27.99942,128.40136 L 12.635067,960.73415 381.56458,661.94517 216.2262,863.00008 340.40745,862.64792 c 2.29477,-0.007 4.59169,0 6.88303,-0.15351 14.72775,-1.25064 30.35063,-21.41438 34.94232,-32.06603" />
        <path id="path10546" style="fill:#808285;fill-opacity:1;fill-rule:evenodd;stroke:none"
            d="m 58.129888,1052.3622 -58.129888,0 40.179559,-54.56487 -26.646018,0 1.930138,-15.08625 55.355455,0 -40.081404,54.47012 29.333583,0 -1.941425,15.181 z m 10.961107,0 8.917011,-69.65112 40.295864,0 -1.95154,15.26863 -22.816259,0 -1.548632,12.07829 21.510271,0 -1.90982,14.9428 -21.510267,0 -1.506911,11.7577 22.815188,0 -1.99561,15.6037 -40.299295,0 z m 52.149845,0 8.91368,-69.65112 17.29782,0 20.25629,35.82612 c 0.38016,0.7314 0.97523,2.1915 1.79812,4.3993 0.80276,2.2105 1.6671,4.8246 2.59492,7.8768 0.01,-2.8896 0.0812,-5.455 0.20407,-7.7133 0.1183,-2.2404 0.29799,-4.236 0.52464,-5.9941 l 4.40208,-34.39482 17.20084,0 -8.91367,69.65112 -17.20419,0 -20.23706,-35.9697 c -0.41266,-0.7313 -1.0238,-2.1907 -1.84327,-4.3984 -0.80636,-2.2114 -1.65698,-4.794 -2.56224,-7.7811 -0.0181,2.9239 -0.0903,5.5056 -0.21129,7.7639 -0.11828,2.2412 -0.29798,4.2378 -0.52464,5.9941 l -4.40315,34.3912 -17.29339,0 z m 78.8309,0 8.91368,-69.65112 18.11051,0 -8.91809,69.65112 -18.1061,0 z m 42.04207,0 6.80853,-53.18241 -14.73678,0 2.10848,-16.46871 47.39896,0 -2.10848,16.46871 -14.73786,0 -6.80519,53.18241 -17.92766,0 z m 41.41556,0 8.91359,-69.65112 17.92775,0 -3.46522,27.07162 23.89082,0 3.46521,-27.07162 17.96831,0 -8.91701,69.65112 -17.9683,0 3.6311,-28.3538 -23.89082,0 -3.6311,28.3538 -17.92433,0 z" />
    </g>
</svg>
